<svg width="20" height="24" viewBox="0 0 20 24" fill="none" xmlns="http://www.w3.org/2000/svg">
<path fill-rule="evenodd" clip-rule="evenodd" d="M0 2C0 0.89543 0.895431 0 2 0H14L20 6V22C20 23.1046 19.1046 24 18 24H2C0.895431 24 0 23.1046 0 22V2ZM0.75 2C0.75 1.30964 1.30964 0.75 2 0.75H13.25V5C13.25 5.9665 14.0335 6.75 15 6.75H19.25V22C19.25 22.6904 18.6904 23.25 18 23.25H2C1.30964 23.25 0.75 22.6904 0.75 22V2Z" fill="#04A003"/>
<path d="M15 14.7181H11.3382V16.6806H15V14.7181Z" fill="#04A003"/>
<path d="M15 12.4879H11.3382V14.4504H15V12.4879Z" fill="#04A003"/>
<path d="M11.3382 12.2104H15V10.5352C15 10.2379 14.7681 10 14.4783 10H11.3382V12.2104Z" fill="#04A003"/>
<path d="M11.3382 16.9482V19H14.4783C14.7681 19 15 18.7621 15 18.4648V16.9482H11.3382Z" fill="#04A003"/>
<path d="M8.07246 10C7.78261 10 7.55072 10.2379 7.55072 10.5352V11.6256H9.71498C10.0242 11.6256 10.2754 11.8833 10.2754 12.2004V12.2203H11.0773V10H8.07246Z" fill="#04A003"/>
<path d="M11.0773 12.4879H10.2754V14.4504H11.0773V12.4879Z" fill="#04A003"/>
<path d="M11.0773 14.7181H10.2754V16.6806H11.0773V14.7181Z" fill="#04A003"/>
<path d="M10.2754 16.9482C10.256 17.2456 10.0145 17.4835 9.72464 17.4835H7.55072V18.4648C7.55072 18.7621 7.78261 19 8.07246 19H11.0773V16.9482H10.2754Z" fill="#04A003"/>
<path d="M9.49275 11.913H5.50242C5.22222 11.913 5 12.141 5 12.4284V16.6905C5 16.978 5.22222 17.2059 5.50242 17.2059H9.49275C9.77295 17.2059 9.99517 16.978 9.99517 16.6905V12.4284C9.98551 12.141 9.76328 11.913 9.49275 11.913ZM8.05314 15.848L7.48309 14.9361L6.91304 15.848H6.29469L7.17391 14.4703L6.38164 13.2115H6.99034L7.50242 14.0639L8.00483 13.2115H8.60386L7.80193 14.4901L8.68116 15.848H8.05314Z" fill="#04A003"/>
</svg>
