<svg width="16" height="16" viewBox="0 0 16 16" fill="none" xmlns="http://www.w3.org/2000/svg">
<path fill-rule="evenodd" clip-rule="evenodd" d="M11.6792 10.6058C12.5313 9.49049 13.0326 8.10139 13.0326 6.59062C13.0326 2.96071 10.1053 0 6.51629 0C2.92732 0 0 2.96071 0 6.59062C0 10.2205 2.92732 13.1812 6.51629 13.1812C7.36842 13.1812 7.6792 13.1508 8.41103 12.8568C8.77193 12.6641 8.92231 12.2383 8.74185 11.8631C8.5614 11.4778 8.11028 11.3156 7.73935 11.4981C7.33835 11.5894 6.93734 11.6603 6.50627 11.6603C3.73935 11.6603 1.49373 9.3891 1.49373 6.59062C1.49373 3.79214 3.74937 1.52091 6.51629 1.52091C9.28321 1.52091 11.5288 3.79214 11.5288 6.59062C11.5288 8.19265 10.7569 9.64259 9.61404 10.5653L14.9875 16L16 14.9759L11.6792 10.6058Z" fill="#111827"/>
</svg>
